<svg xmlns="http://www.w3.org/2000/svg" viewBox="0 0 858.32 1230.16"><defs><style>.cls-1{fill:#c69c6d;}</style></defs><g id="Layer_2" data-name="Layer 2"><g id="Layer_1-2" data-name="Layer 1"><path class="cls-1" d="M264.65,172.82A2065.65,2065.65,0,0,1,552.7,51.56C600.45,35.6,649,19.91,698.26,9.14,741.82-.39,792.86-2.45,823.77,35.6c26.78,33,33.43,81.4,30.61,122.57a246.77,246.77,0,0,1-38.63,115.9,233.17,233.17,0,0,1-39.37,46.6c-16.54,15-36,25.28-53.6,38.86-15.49,12-29.18,29.45-28,50.13,1,17.32,13.71,28.69,29,34.55,17.74,6.79,37.33,7.81,54.41,16.45,17.45,8.83,30.89,23.88,39.74,41.14,20.42,39.82,15.07,85.3-3.33,124.76-9.88,21.18-22.95,40.73-37.11,59.26-14.52,19-31.59,36.69-42.5,58.2-21.23,41.85-13.85,91.2-22.55,136-15.82,81.5-67,155.37-137.32,199.42-40.07,25.12-85.57,38.17-131.6,47.36-24.69,4.93-49.56,8.9-74.32,13.51-23.83,4.43-48.56,8.62-71.39,17-17.79,6.52-34.81,18.55-38.18,38.46-2.8,16.52,7.54,32,24.48,34.15,17.34,2.25,32.58-13.13,31.05-30.44-.84-9.4-6.66-17.22-12.57-24.2-7.93-9.35-16.17-18.45-24.45-27.49A1272.84,1272.84,0,0,0,61.77,959.58Q32.55,939.45,2.23,921c-1.66-1-3.17,1.58-1.52,2.59a1272.89,1272.89,0,0,1,227.48,176.87q25.73,25.18,50,51.82c7.76,8.51,15.56,17,22.93,25.88,8.22,9.87,14.73,21.73,8.7,34.5-11.44,24.22-48.13,15.15-47.67-11.38.44-26,26.09-38.5,47.74-44.66,47.14-13.42,96.2-18.76,144.07-28.87,44.19-9.34,87.5-23,125.72-47.6,66.9-43.05,116.22-113,133.84-190.57,4.7-20.71,6.45-41.68,7.77-62.83,1.52-24.27,3.09-49.14,12.16-72,9.15-23,26.26-41.38,41.38-60.61,14.09-17.91,27.33-36.65,37.86-56.91,18.84-36.23,28.2-77.58,15.81-117.43-5.17-16.62-13.79-32.37-26-44.88-12.6-12.91-28-20.43-45.37-24.83-17.1-4.34-38.23-6.61-50.83-20.37-17.36-19-5.51-46.32,10.75-61.46,16.1-15,36.49-24.6,53.46-38.58a232.37,232.37,0,0,0,39.86-42.49C855.84,224.88,873.55,136,843.32,63.34c-7.6-18.27-19-35.26-35.45-46.65C791.17,5.11,771,.46,750.87,0c-21.54-.45-43,3.55-63.86,8.65-23.94,5.85-47.66,12.75-71.27,19.8A2063.73,2063.73,0,0,0,330.37,137.23q-33.92,15.89-67.23,33c-1.72.88-.2,3.47,1.51,2.59Z"/></g></g></svg>